<svg width="825" height="248" viewBox="0 0 825 248" fill="none" xmlns="http://www.w3.org/2000/svg">
<g filter="url(#filter0_d_0_4)">
<path d="M750.5 28.5L813.5 141L718.5 234L619.5 216L557.5 99L651 8L750.5 28.5Z" fill="#A11F33"/>
<path d="M750.5 28.5L813.5 141L718.5 234M750.5 28.5L658.5 120.5M750.5 28.5L651 8L557.5 99M718.5 234L658.5 120.5M718.5 234L619.5 216L557.5 99M658.5 120.5L557.5 99" stroke="url(#paint0_linear_0_4)" stroke-width="5"/>
</g>
<g filter="url(#filter1_d_0_4)">
<path d="M217.319 34L277 97.4628L149.282 219L15 97.4628L74.6811 34H109.296H149.282H197.027H217.319Z" fill="#A11F33"/>
<path d="M197.027 39H215.157L269.952 97.2672L149.197 212.179L22.1337 97.1756L76.8427 39H109.296H149.282H197.027Z" stroke="url(#paint1_linear_0_4)" stroke-width="10"/>
</g>
<g filter="url(#filter2_d_0_4)">
<path d="M298.219 121V55.5455H326.472C331.33 55.5455 335.58 56.4297 339.224 58.1982C342.867 59.9666 345.701 62.5128 347.725 65.8366C349.749 69.1605 350.761 73.1449 350.761 77.7898C350.761 82.4773 349.717 86.4297 347.629 89.647C345.563 92.8643 342.654 95.2933 338.904 96.9339C335.175 98.5746 330.818 99.3949 325.832 99.3949H308.957V85.5881H322.253C324.341 85.5881 326.12 85.3324 327.59 84.821C329.082 84.2884 330.222 83.4467 331.01 82.2962C331.82 81.1456 332.224 79.6435 332.224 77.7898C332.224 75.9148 331.82 74.3913 331.01 73.2195C330.222 72.0263 329.082 71.1527 327.59 70.5987C326.12 70.0234 324.341 69.7358 322.253 69.7358H315.989V121H298.219ZM336.571 90.9574L352.935 121H333.631L317.651 90.9574H336.571ZM397.072 55.5455H414.842V97.4773C414.842 102.463 413.648 106.778 411.262 110.421C408.897 114.043 405.594 116.845 401.354 118.827C397.114 120.787 392.192 121.767 386.589 121.767C380.942 121.767 375.999 120.787 371.759 118.827C367.519 116.845 364.217 114.043 361.852 110.421C359.508 106.778 358.336 102.463 358.336 97.4773V55.5455H376.106V95.9432C376.106 97.9673 376.553 99.7784 377.448 101.376C378.343 102.953 379.579 104.189 381.156 105.084C382.754 105.979 384.565 106.426 386.589 106.426C388.634 106.426 390.445 105.979 392.022 105.084C393.599 104.189 394.835 102.953 395.729 101.376C396.624 99.7784 397.072 97.9673 397.072 95.9432V55.5455ZM423.287 121V55.5455H451.668C456.654 55.5455 460.84 56.2166 464.228 57.5589C467.637 58.9013 470.205 60.7976 471.931 63.2479C473.678 65.6982 474.551 68.5852 474.551 71.9091C474.551 74.3168 474.019 76.5114 472.953 78.4929C471.909 80.4744 470.439 82.1364 468.543 83.4787C466.646 84.7997 464.431 85.7159 461.895 86.2273V86.8665C464.708 86.973 467.264 87.6868 469.566 89.0078C471.867 90.3075 473.699 92.108 475.063 94.4091C476.426 96.6889 477.108 99.3736 477.108 102.463C477.108 106.043 476.171 109.228 474.296 112.019C472.442 114.81 469.8 117.005 466.369 118.603C462.939 120.201 458.848 121 454.097 121H423.287ZM441.057 106.81H449.367C452.35 106.81 454.587 106.256 456.078 105.148C457.57 104.018 458.316 102.357 458.316 100.162C458.316 98.6278 457.964 97.3281 457.261 96.2628C456.558 95.1974 455.556 94.3878 454.257 93.8338C452.978 93.2798 451.433 93.0028 449.622 93.0028H441.057V106.81ZM441.057 82.0085H448.344C449.899 82.0085 451.274 81.7635 452.467 81.2734C453.66 80.7834 454.587 80.0803 455.247 79.1641C455.929 78.2266 456.27 77.0866 456.27 75.7443C456.27 73.7202 455.546 72.1754 454.097 71.1101C452.648 70.0234 450.816 69.4801 448.6 69.4801H441.057V82.0085ZM480.72 55.5455H500.535L513.319 82.1364H513.83L526.615 55.5455H546.43L522.396 100.418V121H504.754V100.418L480.72 55.5455ZM359.327 163.091H341.301C341.173 161.599 340.832 160.246 340.278 159.032C339.746 157.817 339 156.773 338.041 155.9C337.104 155.005 335.964 154.323 334.621 153.854C333.279 153.364 331.756 153.119 330.051 153.119C327.068 153.119 324.543 153.844 322.477 155.293C320.431 156.741 318.876 158.819 317.81 161.525C316.766 164.231 316.244 167.48 316.244 171.273C316.244 175.278 316.777 178.634 317.842 181.34C318.929 184.025 320.495 186.049 322.54 187.413C324.586 188.755 327.047 189.426 329.923 189.426C331.564 189.426 333.034 189.224 334.334 188.819C335.634 188.393 336.763 187.786 337.722 186.997C338.68 186.209 339.458 185.261 340.055 184.153C340.673 183.023 341.088 181.756 341.301 180.349L359.327 180.477C359.114 183.247 358.336 186.07 356.994 188.947C355.651 191.802 353.744 194.444 351.273 196.873C348.822 199.281 345.786 201.219 342.164 202.69C338.542 204.16 334.334 204.895 329.54 204.895C323.531 204.895 318.141 203.606 313.368 201.028C308.616 198.45 304.856 194.657 302.086 189.65C299.337 184.643 297.963 178.517 297.963 171.273C297.963 163.986 299.369 157.849 302.182 152.864C304.994 147.857 308.787 144.075 313.56 141.518C318.332 138.94 323.659 137.651 329.54 137.651C333.673 137.651 337.477 138.215 340.95 139.344C344.423 140.474 347.469 142.125 350.09 144.298C352.711 146.45 354.82 149.103 356.418 152.256C358.016 155.41 358.986 159.021 359.327 163.091ZM406.124 138.545H423.894V180.477C423.894 185.463 422.701 189.778 420.315 193.421C417.95 197.043 414.647 199.845 410.407 201.827C406.167 203.787 401.245 204.767 395.642 204.767C389.995 204.767 385.052 203.787 380.812 201.827C376.572 199.845 373.269 197.043 370.904 193.421C368.561 189.778 367.389 185.463 367.389 180.477V138.545H385.159V178.943C385.159 180.967 385.606 182.778 386.501 184.376C387.396 185.953 388.632 187.189 390.208 188.084C391.806 188.979 393.617 189.426 395.642 189.426C397.687 189.426 399.498 188.979 401.075 188.084C402.651 187.189 403.887 185.953 404.782 184.376C405.677 182.778 406.124 180.967 406.124 178.943V138.545ZM432.34 204V138.545H460.721C465.706 138.545 469.893 139.217 473.281 140.559C476.69 141.901 479.257 143.798 480.983 146.248C482.73 148.698 483.604 151.585 483.604 154.909C483.604 157.317 483.071 159.511 482.006 161.493C480.962 163.474 479.492 165.136 477.596 166.479C475.699 167.8 473.483 168.716 470.948 169.227V169.866C473.76 169.973 476.317 170.687 478.618 172.008C480.919 173.308 482.752 175.108 484.115 177.409C485.479 179.689 486.161 182.374 486.161 185.463C486.161 189.043 485.223 192.228 483.348 195.019C481.495 197.81 478.853 200.005 475.422 201.603C471.992 203.201 467.901 204 463.15 204H432.34ZM450.11 189.81H458.419C461.402 189.81 463.64 189.256 465.131 188.148C466.623 187.018 467.368 185.357 467.368 183.162C467.368 181.628 467.017 180.328 466.314 179.263C465.61 178.197 464.609 177.388 463.309 176.834C462.031 176.28 460.486 176.003 458.675 176.003H450.11V189.81ZM450.11 165.009H457.397C458.952 165.009 460.326 164.763 461.52 164.273C462.713 163.783 463.64 163.08 464.3 162.164C464.982 161.227 465.323 160.087 465.323 158.744C465.323 156.72 464.598 155.175 463.15 154.11C461.701 153.023 459.868 152.48 457.652 152.48H450.11V165.009ZM492.457 204V138.545H539.63V152.864H510.227V164.114H537.201V178.432H510.227V189.682H539.502V204H492.457Z" fill="url(#paint2_linear_0_4)"/>
</g>
<defs>
<filter id="filter0_d_0_4" x="550.414" y="5.28395" width="270.202" height="239.407" filterUnits="userSpaceOnUse" color-interpolation-filters="sRGB">
<feFlood flood-opacity="0" result="BackgroundImageFix"/>
<feColorMatrix in="SourceAlpha" type="matrix" values="0 0 0 0 0 0 0 0 0 0 0 0 0 0 0 0 0 0 127 0" result="hardAlpha"/>
<feOffset dy="4"/>
<feGaussianBlur stdDeviation="2"/>
<feComposite in2="hardAlpha" operator="out"/>
<feColorMatrix type="matrix" values="0 0 0 0 0 0 0 0 0 0 0 0 0 0 0 0 0 0 0.25 0"/>
<feBlend mode="normal" in2="BackgroundImageFix" result="effect1_dropShadow_0_4"/>
<feBlend mode="normal" in="SourceGraphic" in2="effect1_dropShadow_0_4" result="shape"/>
</filter>
<filter id="filter1_d_0_4" x="11" y="34" width="270" height="193" filterUnits="userSpaceOnUse" color-interpolation-filters="sRGB">
<feFlood flood-opacity="0" result="BackgroundImageFix"/>
<feColorMatrix in="SourceAlpha" type="matrix" values="0 0 0 0 0 0 0 0 0 0 0 0 0 0 0 0 0 0 127 0" result="hardAlpha"/>
<feOffset dy="4"/>
<feGaussianBlur stdDeviation="2"/>
<feComposite in2="hardAlpha" operator="out"/>
<feColorMatrix type="matrix" values="0 0 0 0 0 0 0 0 0 0 0 0 0 0 0 0 0 0 0.25 0"/>
<feBlend mode="normal" in2="BackgroundImageFix" result="effect1_dropShadow_0_4"/>
<feBlend mode="normal" in="SourceGraphic" in2="effect1_dropShadow_0_4" result="shape"/>
</filter>
<filter id="filter2_d_0_4" x="287.963" y="45.5455" width="268.467" height="169.349" filterUnits="userSpaceOnUse" color-interpolation-filters="sRGB">
<feFlood flood-opacity="0" result="BackgroundImageFix"/>
<feColorMatrix in="SourceAlpha" type="matrix" values="0 0 0 0 0 0 0 0 0 0 0 0 0 0 0 0 0 0 127 0" result="hardAlpha"/>
<feOffset/>
<feGaussianBlur stdDeviation="5"/>
<feComposite in2="hardAlpha" operator="out"/>
<feColorMatrix type="matrix" values="0 0 0 0 0 0 0 0 0 0 0 0 0 0 0 0 0 0 0.25 0"/>
<feBlend mode="normal" in2="BackgroundImageFix" result="effect1_dropShadow_0_4"/>
<feBlend mode="normal" in="SourceGraphic" in2="effect1_dropShadow_0_4" result="shape"/>
</filter>
<linearGradient id="paint0_linear_0_4" x1="685.5" y1="8" x2="685.5" y2="234" gradientUnits="userSpaceOnUse">
<stop stop-color="#E81A64"/>
<stop offset="1" stop-color="#EC4242"/>
</linearGradient>
<linearGradient id="paint1_linear_0_4" x1="146" y1="34" x2="146" y2="219" gradientUnits="userSpaceOnUse">
<stop stop-color="#E81A64"/>
<stop offset="1" stop-color="#EC4242" stop-opacity="0.54"/>
</linearGradient>
<linearGradient id="paint2_linear_0_4" x1="424.5" y1="47" x2="424.5" y2="213" gradientUnits="userSpaceOnUse">
<stop stop-color="#8D2535"/>
<stop offset="1" stop-color="#C21B43"/>
</linearGradient>
</defs>
</svg>
