<svg width="273" height="242" viewBox="0 0 273 242" fill="none" xmlns="http://www.w3.org/2000/svg">
<g clip-path="url(#clip0_20_2)">
<g filter="url(#filter0_d_20_2)">
<path d="M200 25.5L263 138L168 231L69 213L7 96L100.5 5L200 25.5Z" fill="#A11F33"/>
<path d="M200 25.5L263 138L168 231M200 25.5L108 117.5M200 25.5L100.5 5L7 96M168 231L108 117.5M168 231L69 213L7 96M108 117.5L7 96" stroke="url(#paint0_linear_20_2)" stroke-width="5"/>
</g>
<path d="M38.5 100L12.5 94L42.1145 65.0548L42.6821 64.5L72.8642 35L101 7.5L128 13.131L161.5 20.1176L194.5 27L166.5 55.5L106.75 114.5L74 107.5L38.5 100Z" fill="#F2F2F2"/>
<path d="M38.5 100L12.5 94L42.6821 64.5L72.8642 35M38.5 100L128 13.131M38.5 100L74 107.5M128 13.131L101 7.5L72.8642 35M128 13.131L161.5 20.1176M74 107.5L106.75 114.5L166.5 55.5M74 107.5L161.5 20.1176M161.5 20.1176L194.5 27L166.5 55.5M72.8642 35L166.5 55.5M41.8641 65L135.5 85.5" stroke="black" stroke-width="2"/>
<path d="M12 100L38.5 105.638L73.7006 113.018L107 120L126.664 158L163 227.5L131.062 221.72L96.45 215.456L70 210L52.9098 177.055L32.6497 138L12 100Z" fill="#B82626"/>
<path d="M38.5 105.638L12 100L32.6497 138M38.5 105.638L107 120L126.664 158M38.5 105.638L96.45 215.456M96.45 215.456L163 227.5L126.664 158M96.45 215.456L70 210L32.6497 138M73.5 112.638L131.45 222.456M32.6497 138L126.664 158M52.6497 177L146.664 197" stroke="black" stroke-width="2"/>
<path d="M169 225L153.124 194.709L132.836 156L111 117L140.432 88.156L171.599 57.4703L199.5 30L221.279 68L259.5 136.5L198 196.597L169 225Z" fill="#38B1D7"/>
<path d="M132.836 156L169 225L198 196.597M132.836 156L111 117L140.432 88.156M132.836 156L221.279 68M221.279 68L199.5 30L140.432 88.156M221.279 68L259.5 136.5L198 196.597M152.836 195L241.57 105.5M140.432 88.156L198 196.597M171.432 57.156L200.216 111.376L229 165.597" stroke="black" stroke-width="2"/>
</g>
<defs>
<filter id="filter0_d_20_2" x="-0.0862427" y="2.28395" width="270.202" height="239.407" filterUnits="userSpaceOnUse" color-interpolation-filters="sRGB">
<feFlood flood-opacity="0" result="BackgroundImageFix"/>
<feColorMatrix in="SourceAlpha" type="matrix" values="0 0 0 0 0 0 0 0 0 0 0 0 0 0 0 0 0 0 127 0" result="hardAlpha"/>
<feOffset dy="4"/>
<feGaussianBlur stdDeviation="2"/>
<feComposite in2="hardAlpha" operator="out"/>
<feColorMatrix type="matrix" values="0 0 0 0 0 0 0 0 0 0 0 0 0 0 0 0 0 0 0.25 0"/>
<feBlend mode="normal" in2="BackgroundImageFix" result="effect1_dropShadow_20_2"/>
<feBlend mode="normal" in="SourceGraphic" in2="effect1_dropShadow_20_2" result="shape"/>
</filter>
<linearGradient id="paint0_linear_20_2" x1="135" y1="5" x2="135" y2="231" gradientUnits="userSpaceOnUse">
<stop stop-color="#E81A64"/>
<stop offset="1" stop-color="#EC4242"/>
</linearGradient>
<clipPath id="clip0_20_2">
<rect width="273" height="242" fill="white"/>
</clipPath>
</defs>
</svg>
