<svg width="868" height="119" viewBox="0 0 868 119" fill="none" xmlns="http://www.w3.org/2000/svg">
<g clip-path="url(#clip0_6_50)">
<g filter="url(#filter0_d_6_50)">
<path d="M100.223 13.615L130 66.3805L85.0977 110L38.3047 101.558L9 46.6814L53.1934 4L100.223 13.615Z" fill="#A11F33"/>
<path d="M100.223 13.615L130 66.3805L85.0977 110M100.223 13.615L56.7383 56.7655M100.223 13.615L53.1934 4L9 46.6814M85.0977 110L56.7383 56.7655M85.0977 110L38.3047 101.558L9 46.6814M56.7383 56.7655L9 46.6814" stroke="url(#paint0_linear_6_50)" stroke-width="5"/>
</g>
<g filter="url(#filter1_d_6_50)">
<path d="M160 106V12.9091H200.182C207.091 12.9091 213.136 14.1667 218.318 16.6818C223.5 19.197 227.53 22.8182 230.409 27.5455C233.288 32.2727 234.727 37.9394 234.727 44.5455C234.727 51.2121 233.242 56.8333 230.273 61.4091C227.333 65.9848 223.197 69.4394 217.864 71.7727C212.561 74.1061 206.364 75.2727 199.273 75.2727H175.273V55.6364H194.182C197.152 55.6364 199.682 55.2727 201.773 54.5455C203.894 53.7879 205.515 52.5909 206.636 50.9545C207.788 49.3182 208.364 47.1818 208.364 44.5455C208.364 41.8788 207.788 39.7121 206.636 38.0455C205.515 36.3485 203.894 35.1061 201.773 34.3182C199.682 33.5 197.152 33.0909 194.182 33.0909H185.273V106H160ZM214.545 63.2727L237.818 106H210.364L187.636 63.2727H214.545ZM300.591 12.9091H325.864V72.5455C325.864 79.6364 324.167 85.7727 320.773 90.9545C317.409 96.1061 312.712 100.091 306.682 102.909C300.652 105.697 293.652 107.091 285.682 107.091C277.652 107.091 270.621 105.697 264.591 102.909C258.561 100.091 253.864 96.1061 250.5 90.9545C247.167 85.7727 245.5 79.6364 245.5 72.5455V12.9091H270.773V70.3636C270.773 73.2424 271.409 75.8182 272.682 78.0909C273.955 80.3333 275.712 82.0909 277.955 83.3636C280.227 84.6364 282.803 85.2727 285.682 85.2727C288.591 85.2727 291.167 84.6364 293.409 83.3636C295.652 82.0909 297.409 80.3333 298.682 78.0909C299.955 75.8182 300.591 73.2424 300.591 70.3636V12.9091ZM337.875 106V12.9091H378.239C385.33 12.9091 391.284 13.8636 396.102 15.7727C400.951 17.6818 404.602 20.3788 407.057 23.8636C409.542 27.3485 410.784 31.4545 410.784 36.1818C410.784 39.6061 410.027 42.7273 408.511 45.5455C407.027 48.3636 404.936 50.7273 402.239 52.6364C399.542 54.5151 396.39 55.8182 392.784 56.5455V57.4545C396.784 57.6061 400.42 58.6212 403.693 60.5C406.966 62.3485 409.572 64.9091 411.511 68.1818C413.451 71.4242 414.42 75.2424 414.42 79.6364C414.42 84.7273 413.087 89.2576 410.42 93.2273C407.784 97.197 404.027 100.318 399.148 102.591C394.269 104.864 388.451 106 381.693 106H337.875ZM363.148 85.8182H374.966C379.208 85.8182 382.39 85.0303 384.511 83.4545C386.633 81.8485 387.693 79.4848 387.693 76.3636C387.693 74.1818 387.193 72.3333 386.193 70.8182C385.193 69.303 383.769 68.1515 381.92 67.3636C380.102 66.5758 377.905 66.1818 375.33 66.1818H363.148V85.8182ZM363.148 50.5455H373.511C375.723 50.5455 377.678 50.197 379.375 49.5C381.072 48.803 382.39 47.803 383.33 46.5C384.299 45.1667 384.784 43.5455 384.784 41.6364C384.784 38.7576 383.754 36.5606 381.693 35.0455C379.633 33.5 377.027 32.7273 373.875 32.7273H363.148V50.5455ZM419.557 12.9091H447.739L465.92 50.7273H466.648L484.83 12.9091H513.011L478.83 76.7273V106H453.739V76.7273L419.557 12.9091ZM601.659 47.8182H576.023C575.841 45.697 575.356 43.7727 574.568 42.0455C573.811 40.3182 572.75 38.8333 571.386 37.5909C570.053 36.3182 568.432 35.3485 566.523 34.6818C564.614 33.9848 562.447 33.6364 560.023 33.6364C555.78 33.6364 552.189 34.6667 549.25 36.7273C546.341 38.7879 544.129 41.7424 542.614 45.5909C541.129 49.4394 540.386 54.0606 540.386 59.4545C540.386 65.1515 541.144 69.9242 542.659 73.7727C544.205 77.5909 546.432 80.4697 549.341 82.4091C552.25 84.3182 555.75 85.2727 559.841 85.2727C562.174 85.2727 564.265 84.9848 566.114 84.4091C567.962 83.803 569.568 82.9394 570.932 81.8182C572.295 80.697 573.402 79.3485 574.25 77.7727C575.129 76.1667 575.72 74.3636 576.023 72.3636L601.659 72.5455C601.356 76.4848 600.25 80.5 598.341 84.5909C596.432 88.6515 593.72 92.4091 590.205 95.8636C586.72 99.2879 582.402 102.045 577.25 104.136C572.098 106.227 566.114 107.273 559.295 107.273C550.75 107.273 543.083 105.439 536.295 101.773C529.538 98.1061 524.189 92.7121 520.25 85.5909C516.341 78.4697 514.386 69.7576 514.386 59.4545C514.386 49.0909 516.386 40.3636 520.386 33.2727C524.386 26.1515 529.78 20.7727 536.568 17.1364C543.356 13.4697 550.932 11.6364 559.295 11.6364C565.174 11.6364 570.583 12.4394 575.523 14.0454C580.462 15.6515 584.795 18 588.523 21.0909C592.25 24.1515 595.25 27.9242 597.523 32.4091C599.795 36.8939 601.174 42.0303 601.659 47.8182ZM668.216 12.9091H693.489V72.5455C693.489 79.6364 691.792 85.7727 688.398 90.9545C685.034 96.1061 680.337 100.091 674.307 102.909C668.277 105.697 661.277 107.091 653.307 107.091C645.277 107.091 638.246 105.697 632.216 102.909C626.186 100.091 621.489 96.1061 618.125 90.9545C614.792 85.7727 613.125 79.6364 613.125 72.5455V12.9091H638.398V70.3636C638.398 73.2424 639.034 75.8182 640.307 78.0909C641.58 80.3333 643.337 82.0909 645.58 83.3636C647.852 84.6364 650.428 85.2727 653.307 85.2727C656.216 85.2727 658.792 84.6364 661.034 83.3636C663.277 82.0909 665.034 80.3333 666.307 78.0909C667.58 75.8182 668.216 73.2424 668.216 70.3636V12.9091ZM705.5 106V12.9091H745.864C752.955 12.9091 758.909 13.8636 763.727 15.7727C768.576 17.6818 772.227 20.3788 774.682 23.8636C777.167 27.3485 778.409 31.4545 778.409 36.1818C778.409 39.6061 777.652 42.7273 776.136 45.5455C774.652 48.3636 772.561 50.7273 769.864 52.6364C767.167 54.5151 764.015 55.8182 760.409 56.5455V57.4545C764.409 57.6061 768.045 58.6212 771.318 60.5C774.591 62.3485 777.197 64.9091 779.136 68.1818C781.076 71.4242 782.045 75.2424 782.045 79.6364C782.045 84.7273 780.712 89.2576 778.045 93.2273C775.409 97.197 771.652 100.318 766.773 102.591C761.894 104.864 756.076 106 749.318 106H705.5ZM730.773 85.8182H742.591C746.833 85.8182 750.015 85.0303 752.136 83.4545C754.258 81.8485 755.318 79.4848 755.318 76.3636C755.318 74.1818 754.818 72.3333 753.818 70.8182C752.818 69.303 751.394 68.1515 749.545 67.3636C747.727 66.5758 745.53 66.1818 742.955 66.1818H730.773V85.8182ZM730.773 50.5455H741.136C743.348 50.5455 745.303 50.197 747 49.5C748.697 48.803 750.015 47.803 750.955 46.5C751.924 45.1667 752.409 43.5455 752.409 41.6364C752.409 38.7576 751.379 36.5606 749.318 35.0455C747.258 33.5 744.652 32.7273 741.5 32.7273H730.773V50.5455ZM791 106V12.9091H858.091V33.2727H816.273V49.2727H854.636V69.6364H816.273V85.6364H857.909V106H791Z" fill="url(#paint1_linear_6_50)"/>
</g>
</g>
<defs>
<filter id="filter0_d_6_50" x="1.9057" y="1.28687" width="135.219" height="119.402" filterUnits="userSpaceOnUse" color-interpolation-filters="sRGB">
<feFlood flood-opacity="0" result="BackgroundImageFix"/>
<feColorMatrix in="SourceAlpha" type="matrix" values="0 0 0 0 0 0 0 0 0 0 0 0 0 0 0 0 0 0 127 0" result="hardAlpha"/>
<feOffset dy="4"/>
<feGaussianBlur stdDeviation="2"/>
<feComposite in2="hardAlpha" operator="out"/>
<feColorMatrix type="matrix" values="0 0 0 0 0 0 0 0 0 0 0 0 0 0 0 0 0 0 0.25 0"/>
<feBlend mode="normal" in2="BackgroundImageFix" result="effect1_dropShadow_6_50"/>
<feBlend mode="normal" in="SourceGraphic" in2="effect1_dropShadow_6_50" result="shape"/>
</filter>
<filter id="filter1_d_6_50" x="150" y="1.63635" width="718.091" height="115.636" filterUnits="userSpaceOnUse" color-interpolation-filters="sRGB">
<feFlood flood-opacity="0" result="BackgroundImageFix"/>
<feColorMatrix in="SourceAlpha" type="matrix" values="0 0 0 0 0 0 0 0 0 0 0 0 0 0 0 0 0 0 127 0" result="hardAlpha"/>
<feOffset/>
<feGaussianBlur stdDeviation="5"/>
<feComposite in2="hardAlpha" operator="out"/>
<feColorMatrix type="matrix" values="0 0 0 0 0 0 0 0 0 0 0 0 0 0 0 0 0 0 0.25 0"/>
<feBlend mode="normal" in2="BackgroundImageFix" result="effect1_dropShadow_6_50"/>
<feBlend mode="normal" in="SourceGraphic" in2="effect1_dropShadow_6_50" result="shape"/>
</filter>
<linearGradient id="paint0_linear_6_50" x1="69.5" y1="4" x2="69.5" y2="110" gradientUnits="userSpaceOnUse">
<stop stop-color="#E81A64"/>
<stop offset="1" stop-color="#EC4242"/>
</linearGradient>
<linearGradient id="paint1_linear_6_50" x1="511" y1="0" x2="511" y2="115" gradientUnits="userSpaceOnUse">
<stop stop-color="#8D2535"/>
<stop offset="1" stop-color="#C21B43"/>
</linearGradient>
<clipPath id="clip0_6_50">
<rect width="868" height="119" fill="white"/>
</clipPath>
</defs>
</svg>
