<svg width="888" height="142" viewBox="0 0 888 142" fill="none" xmlns="http://www.w3.org/2000/svg">
<rect width="888" height="142" fill="white"/>
<g filter="url(#filter0_d_7_2)">
<path d="M110.223 25.615L140 78.3805L95.0977 122L48.3047 113.558L19 58.6814L63.1934 16L110.223 25.615Z" fill="#A11F33"/>
<path d="M110.223 25.615L140 78.3805L95.0977 122M110.223 25.615L66.7383 68.7655M110.223 25.615L63.1934 16L19 58.6814M95.0977 122L66.7383 68.7655M95.0977 122L48.3047 113.558L19 58.6814M66.7383 68.7655L19 58.6814" stroke="url(#paint0_linear_7_2)" stroke-width="5"/>
</g>
<g filter="url(#filter1_d_7_2)">
<path d="M173.356 126.959V33.8677H213.538C220.447 33.8677 226.493 35.1252 231.674 37.6404C235.498 39.4965 238.695 41.9551 241.265 45.016C242.178 46.1027 243.011 47.2654 243.765 48.504C246.644 53.2313 248.083 58.898 248.083 65.504C248.083 72.1707 246.599 77.7919 243.629 82.3677C240.69 86.9434 236.553 90.398 231.22 92.7313C225.917 95.0646 219.72 96.2313 212.629 96.2313H188.629V76.5949H207.538C210.508 76.5949 213.038 76.2313 215.129 75.504C217.25 74.7465 218.871 73.5495 219.993 71.9131C221.144 70.2768 221.72 68.1404 221.72 65.504C221.72 62.8374 221.144 60.6707 219.993 59.004C219.8 58.7133 219.594 58.4359 219.372 58.1719C218.301 56.8947 216.887 55.9297 215.129 55.2768C213.038 54.4586 210.508 54.0495 207.538 54.0495H198.629V126.959H173.356ZM227.902 84.2313L251.174 126.959H223.72L200.993 84.2313H227.902Z" fill="black"/>
<path d="M313.947 33.8677H339.22V93.504C339.22 100.595 337.523 106.731 334.129 111.913C330.765 117.065 326.068 121.049 320.038 123.868C314.008 126.656 307.008 128.049 299.038 128.049C291.008 128.049 283.977 126.656 277.947 123.868C273.17 121.635 269.23 118.671 266.126 114.974C265.312 114.004 264.555 112.984 263.856 111.913C260.523 106.731 258.856 100.595 258.856 93.504V33.8677H284.129V91.3222C284.129 94.201 284.765 96.7768 286.038 99.0495C286.472 99.814 286.962 100.522 287.509 101.174C288.566 102.434 289.833 103.483 291.311 104.322C293.583 105.595 296.159 106.231 299.038 106.231C301.947 106.231 304.523 105.595 306.765 104.322C309.008 103.049 310.765 101.292 312.038 99.0495C313.311 96.7768 313.947 94.201 313.947 91.3222V33.8677Z" fill="black"/>
<path d="M351.231 126.959V33.8677H391.595C398.686 33.8677 404.64 34.8222 409.458 36.7313C413.692 38.3984 417.013 40.6662 419.422 43.5347C419.771 43.9512 420.102 44.3804 420.413 44.8222C422.898 48.3071 424.14 52.4131 424.14 57.1404C424.14 60.5646 423.383 63.6858 421.868 66.504C420.383 69.3222 418.292 71.6858 415.595 73.5949C412.898 75.4737 409.746 76.7768 406.14 77.504V78.4131C410.14 78.5646 413.777 79.5798 417.049 81.4586C419.276 82.7163 421.194 84.3037 422.804 86.2207C423.56 87.1212 424.248 88.0944 424.868 89.1404C426.807 92.3828 427.777 96.201 427.777 100.595C427.777 105.686 426.443 110.216 423.777 114.186C421.14 118.156 417.383 121.277 412.504 123.549C407.625 125.822 401.807 126.959 395.049 126.959H351.231ZM376.504 106.777H388.322C392.565 106.777 395.746 105.989 397.868 104.413C399.989 102.807 401.049 100.443 401.049 97.3222C401.049 95.1404 400.549 93.2919 399.549 91.7768C399.364 91.4955 399.164 91.2268 398.949 90.9706C398.006 89.8467 396.782 88.9639 395.277 88.3222C393.458 87.5343 391.262 87.1404 388.686 87.1404H376.504V106.777ZM376.504 71.504H386.868C389.08 71.504 391.034 71.1555 392.731 70.4586C394.428 69.7616 395.746 68.7616 396.686 67.4586C397.655 66.1252 398.14 64.504 398.14 62.5949C398.14 60.4257 397.555 58.6437 396.385 57.2487C396.003 56.7924 395.557 56.3775 395.049 56.004C392.989 54.4586 390.383 53.6859 387.231 53.6859H376.504V71.504Z" fill="black"/>
<path d="M432.913 33.8677H461.095L479.277 71.6859H480.004L498.186 33.8677H526.368L492.186 97.6859V126.959H467.095V97.6859L432.913 33.8677Z" fill="black"/>
<path d="M615.015 68.7768H589.379C589.197 66.6555 588.712 64.7313 587.924 63.004C587.409 61.829 586.753 60.7661 585.958 59.8154C585.583 59.3687 585.178 58.9467 584.743 58.5495C583.409 57.2768 581.788 56.3071 579.879 55.6404C577.97 54.9434 575.803 54.5949 573.379 54.5949C569.137 54.5949 565.546 55.6252 562.606 57.6859C559.697 59.7465 557.485 62.701 555.97 66.5495C554.485 70.398 553.743 75.0192 553.743 80.4131C553.743 86.1101 554.5 90.8828 556.015 94.7313C556.886 96.8832 557.974 98.7368 559.278 100.292C560.288 101.496 561.428 102.521 562.697 103.368C565.606 105.277 569.106 106.231 573.197 106.231C575.53 106.231 577.621 105.943 579.47 105.368C581.318 104.762 582.924 103.898 584.288 102.777C585.652 101.656 586.758 100.307 587.606 98.7313C588.485 97.1252 589.076 95.3222 589.379 93.3222L615.015 93.504C614.712 97.4434 613.606 101.459 611.697 105.549C609.788 109.61 607.076 113.368 603.561 116.822C600.076 120.246 595.758 123.004 590.606 125.095C585.455 127.186 579.47 128.231 572.652 128.231C564.106 128.231 556.44 126.398 549.652 122.731C545.304 120.372 541.539 117.298 538.358 113.509C536.595 111.409 535.011 109.089 533.606 106.549C529.697 99.4283 527.743 90.7162 527.743 80.4131C527.743 70.0495 529.743 61.3222 533.743 54.2313C537.743 47.1101 543.137 41.7313 549.924 38.0949C556.712 34.4283 564.288 32.5949 572.652 32.5949C578.53 32.5949 583.94 33.398 588.879 35.004C593.818 36.6101 598.152 38.9586 601.879 42.0495C603.504 43.3835 604.99 44.8529 606.338 46.4575C608.083 48.5343 609.597 50.8377 610.879 53.3677C613.152 57.8525 614.53 62.9889 615.015 68.7768Z" fill="black"/>
<path d="M681.572 33.8677H706.845V93.504C706.845 100.595 705.148 106.731 701.754 111.913C698.39 117.065 693.693 121.049 687.663 123.868C681.633 126.656 674.633 128.049 666.663 128.049C658.633 128.049 651.602 126.656 645.572 123.868C640.795 121.635 636.855 118.671 633.751 114.974C632.937 114.004 632.18 112.984 631.481 111.913C628.148 106.731 626.481 100.595 626.481 93.504V33.8677H651.754V91.3222C651.754 94.201 652.39 96.7768 653.663 99.0495C654.097 99.814 654.587 100.522 655.134 101.174C656.191 102.434 657.458 103.483 658.936 104.322C661.208 105.595 663.784 106.231 666.663 106.231C669.572 106.231 672.148 105.595 674.39 104.322C676.633 103.049 678.39 101.292 679.663 99.0495C680.936 96.7768 681.572 94.201 681.572 91.3222V33.8677Z" fill="black"/>
<path d="M718.856 126.959V33.8677H759.22C766.311 33.8677 772.265 34.8222 777.083 36.7313C781.317 38.3984 784.638 40.6662 787.047 43.5347C787.396 43.9512 787.727 44.3804 788.038 44.8222C790.523 48.3071 791.765 52.4131 791.765 57.1404C791.765 60.5646 791.008 63.6858 789.493 66.504C788.008 69.3222 785.917 71.6858 783.22 73.5949C780.523 75.4737 777.371 76.7768 773.765 77.504V78.4131C777.765 78.5646 781.402 79.5798 784.674 81.4586C786.901 82.7163 788.819 84.3037 790.429 86.2207C791.185 87.1212 791.873 88.0944 792.493 89.1404C794.432 92.3828 795.402 96.201 795.402 100.595C795.402 105.686 794.068 110.216 791.402 114.186C788.765 118.156 785.008 121.277 780.129 123.549C775.25 125.822 769.432 126.959 762.674 126.959H718.856ZM744.129 106.777H755.947C760.19 106.777 763.371 105.989 765.493 104.413C767.614 102.807 768.674 100.443 768.674 97.3222C768.674 95.1404 768.174 93.2919 767.174 91.7768C766.989 91.4955 766.789 91.2268 766.574 90.9706C765.631 89.8467 764.407 88.9639 762.902 88.3222C761.083 87.5343 758.886 87.1404 756.311 87.1404H744.129V106.777ZM744.129 71.504H754.493C756.705 71.504 758.659 71.1555 760.356 70.4586C762.053 69.7616 763.371 68.7616 764.311 67.4586C765.28 66.1252 765.765 64.504 765.765 62.5949C765.765 60.4257 765.18 58.6437 764.01 57.2487C763.628 56.7924 763.182 56.3775 762.674 56.004C760.614 54.4586 758.008 53.6859 754.856 53.6859H744.129V71.504Z" fill="black"/>
<path d="M804.356 126.959V33.8677H871.447V54.2313H829.629V70.2313H867.993V90.5949H829.629V106.595H871.265V126.959H804.356Z" fill="black"/>
</g>
<path d="M205.182 23.9091H165L173.356 33.8677H213.538L205.182 23.9091Z" fill="black"/>
<path d="M223.318 27.6818C218.136 25.1667 212.091 23.9091 205.182 23.9091L213.538 33.8677C220.447 33.8677 226.493 35.1252 231.674 37.6404L223.318 27.6818Z" fill="black"/>
<path d="M190.273 44.0909H199.182L207.538 54.0495H198.629L190.273 44.0909Z" fill="black"/>
<path d="M165 23.9091V117L173.356 126.959V33.8677L165 23.9091Z" fill="black"/>
<path d="M199.182 44.0909C202.151 44.0909 204.682 44.5 206.773 45.3182L215.129 55.2767C213.038 54.4586 210.508 54.0495 207.538 54.0495L199.182 44.0909Z" fill="black"/>
<path d="M206.773 45.3182C208.53 45.9711 209.945 46.9361 211.016 48.2133L219.369 58.1682C218.298 56.8928 216.885 55.929 215.129 55.2768L206.773 45.3182Z" fill="black"/>
<path d="M232.909 35.0574C230.339 31.9965 227.142 29.538 223.318 27.6818L231.674 37.6404C235.499 39.4965 238.696 41.9551 241.265 45.016L232.909 35.0574Z" fill="black"/>
<path d="M199.182 66.6364H180.273L188.629 76.5949H207.538L199.182 66.6364Z" fill="black"/>
<path d="M211.016 48.2133C211.238 48.4773 211.444 48.7547 211.636 49.0454L219.993 59.004C219.801 58.7133 219.594 58.4359 219.372 58.1718L211.016 48.2133Z" fill="black"/>
<path d="M180.273 66.6364V86.2727L188.629 96.2313V76.5949L180.273 66.6364Z" fill="black"/>
<path d="M211.636 49.0454C212.788 50.7121 213.364 52.8788 213.364 55.5454L221.72 65.504C221.72 62.8374 221.144 60.6707 219.993 59.004L211.636 49.0454Z" fill="black"/>
<path d="M235.409 38.5455C234.657 37.3112 233.827 36.1523 232.919 35.0689L241.265 45.016C242.178 46.1027 243.011 47.2654 243.765 48.504L235.409 38.5455Z" fill="black"/>
<path d="M206.773 65.5454C204.682 66.2727 202.151 66.6364 199.182 66.6364L207.538 76.5949C210.508 76.5949 213.038 76.2313 215.129 75.504L206.773 65.5454Z" fill="black"/>
<path d="M213.364 55.5454C213.364 58.1818 212.788 60.3182 211.636 61.9545L219.993 71.9131C221.144 70.2767 221.72 68.1404 221.72 65.504L213.364 55.5454Z" fill="black"/>
<path d="M211.636 61.9545C210.515 63.5909 208.894 64.7879 206.773 65.5454L215.129 75.504C217.25 74.7464 218.871 73.5495 219.993 71.9131L211.636 61.9545Z" fill="black"/>
<path d="M190.273 117V44.0909L198.629 54.0495V126.959L190.273 117Z" fill="black"/>
<path d="M275.773 23.9091H250.5L258.856 33.8677H284.129L275.773 23.9091Z" fill="black"/>
<path d="M239.727 55.5454C239.727 48.9394 238.288 43.2727 235.409 38.5454L243.765 48.504C246.644 53.2313 248.083 58.898 248.083 65.504L239.727 55.5454Z" fill="black"/>
<path d="M219.545 74.2727H192.636L200.993 84.2313H227.902L219.545 74.2727Z" fill="black"/>
<path d="M180.273 86.2727H204.273L212.629 96.2313H188.629L180.273 86.2727Z" fill="black"/>
<path d="M235.273 72.4091C238.242 67.8333 239.727 62.2121 239.727 55.5454L248.083 65.504C248.083 72.1707 246.599 77.7919 243.629 82.3677L235.273 72.4091Z" fill="black"/>
<path d="M204.273 86.2727C211.364 86.2727 217.561 85.106 222.864 82.7727L231.22 92.7313C225.917 95.0646 219.72 96.2313 212.629 96.2313L204.273 86.2727Z" fill="black"/>
<path d="M250.5 23.9091V83.5455L258.856 93.504V33.8677L250.5 23.9091Z" fill="black"/>
<path d="M165 117H190.273L198.629 126.959H173.356L165 117Z" fill="black"/>
<path d="M192.636 74.2727L215.364 117L223.72 126.959L200.993 84.2313L192.636 74.2727Z" fill="black"/>
<path d="M222.864 82.7727C228.197 80.4394 232.333 76.9848 235.273 72.4091L243.629 82.3677C240.69 86.9434 236.553 90.398 231.22 92.7313L222.864 82.7727Z" fill="black"/>
<path d="M275.773 81.3636V23.9091L284.129 33.8677V91.3222L275.773 81.3636Z" fill="black"/>
<path d="M242.818 117L219.545 74.2727L227.902 84.2313L251.174 126.959L242.818 117Z" fill="black"/>
<path d="M330.864 23.9091H305.591L313.947 33.8677H339.22L330.864 23.9091Z" fill="black"/>
<path d="M250.5 83.5454C250.5 90.6364 252.167 96.7727 255.5 101.955L263.856 111.913C260.523 106.731 258.856 100.595 258.856 93.504L250.5 83.5454Z" fill="black"/>
<path d="M305.591 23.9091V81.3636L313.947 91.3222V33.8677L305.591 23.9091Z" fill="black"/>
<path d="M215.364 117H242.818L251.174 126.959H223.72L215.364 117Z" fill="black"/>
<path d="M277.682 89.0909C276.409 86.8182 275.773 84.2424 275.773 81.3636L284.129 91.3222C284.129 94.201 284.765 96.7767 286.038 99.0495L277.682 89.0909Z" fill="black"/>
<path d="M255.5 101.955C256.199 103.025 256.956 104.045 257.77 105.015L266.115 114.961C265.305 113.995 264.552 112.979 263.856 111.913L255.5 101.955Z" fill="black"/>
<path d="M279.153 91.2154C278.606 90.5636 278.116 89.8554 277.682 89.0909L286.038 99.0495C286.472 99.814 286.962 100.522 287.509 101.174L279.153 91.2154Z" fill="black"/>
<path d="M383.239 23.9091H342.875L351.231 33.8677H391.595L383.239 23.9091Z" fill="black"/>
<path d="M282.955 94.3636C281.479 93.5261 280.213 92.4785 279.157 91.221L287.509 101.174C288.566 102.434 289.833 103.483 291.311 104.322L282.955 94.3636Z" fill="black"/>
<path d="M257.77 105.015C260.874 108.712 264.814 111.677 269.591 113.909L277.947 123.868C273.17 121.635 269.23 118.671 266.126 114.974L257.77 105.015Z" fill="black"/>
<path d="M330.864 83.5455V23.9091L339.22 33.8677V93.504L330.864 83.5455Z" fill="black"/>
<path d="M290.682 96.2727C287.803 96.2727 285.227 95.6364 282.955 94.3636L291.311 104.322C293.584 105.595 296.159 106.231 299.038 106.231L290.682 96.2727Z" fill="black"/>
<path d="M305.591 81.3636C305.591 84.2424 304.955 86.8182 303.682 89.0909L312.038 99.0495C313.311 96.7767 313.947 94.201 313.947 91.3222L305.591 81.3636Z" fill="black"/>
<path d="M298.409 94.3636C296.167 95.6364 293.591 96.2727 290.682 96.2727L299.038 106.231C301.947 106.231 304.523 105.595 306.765 104.322L298.409 94.3636Z" fill="black"/>
<path d="M303.682 89.0909C302.409 91.3333 300.651 93.0909 298.409 94.3636L306.765 104.322C309.008 103.049 310.765 101.292 312.038 99.0495L303.682 89.0909Z" fill="black"/>
<path d="M269.591 113.909C275.621 116.697 282.652 118.091 290.682 118.091L299.038 128.049C291.008 128.049 283.977 126.656 277.947 123.868L269.591 113.909Z" fill="black"/>
<path d="M401.102 26.7727C396.284 24.8636 390.33 23.9091 383.239 23.9091L391.595 33.8677C398.686 33.8677 404.64 34.8222 409.459 36.7313L401.102 26.7727Z" fill="black"/>
<path d="M368.148 43.7273H378.875L387.231 53.6858H376.504L368.148 43.7273Z" fill="black"/>
<path d="M342.875 23.9091V117L351.231 126.959V33.8677L342.875 23.9091Z" fill="black"/>
<path d="M368.148 61.5454V43.7273L376.504 53.6858V71.504L368.148 61.5454Z" fill="black"/>
<path d="M378.875 43.7273C382.027 43.7273 384.633 44.5 386.693 46.0454L395.049 56.004C392.989 54.4586 390.383 53.6858 387.231 53.6858L378.875 43.7273Z" fill="black"/>
<path d="M325.773 101.955C329.167 96.7727 330.864 90.6364 330.864 83.5454L339.22 93.504C339.22 100.595 337.523 106.731 334.129 111.913L325.773 101.955Z" fill="black"/>
<path d="M290.682 118.091C298.652 118.091 305.652 116.697 311.682 113.909L320.038 123.868C314.008 126.656 307.008 128.049 299.038 128.049L290.682 118.091Z" fill="black"/>
<path d="M411.066 33.5761C408.657 30.7076 405.336 28.4398 401.102 26.7727L409.459 36.7313C413.692 38.3983 417.013 40.6661 419.422 43.5347L411.066 33.5761Z" fill="black"/>
<path d="M386.693 46.0454C387.201 46.4189 387.646 46.8338 388.029 47.2901L396.383 57.2462C396.001 56.7909 395.556 56.3768 395.049 56.004L386.693 46.0454Z" fill="black"/>
<path d="M378.511 61.5454H368.148L376.504 71.504H386.868L378.511 61.5454Z" fill="black"/>
<path d="M311.682 113.909C317.712 111.091 322.409 107.106 325.773 101.955L334.129 111.913C330.765 117.065 326.068 121.049 320.038 123.868L311.682 113.909Z" fill="black"/>
<path d="M388.029 47.2901C389.199 48.6851 389.784 50.4672 389.784 52.6364L398.14 62.5949C398.14 60.4257 397.555 58.6437 396.385 57.2487L388.029 47.2901Z" fill="black"/>
<path d="M412.057 34.8636C411.748 34.4247 411.42 33.9983 411.073 33.5844L419.422 43.5347C419.771 43.9512 420.102 44.3804 420.413 44.8222L412.057 34.8636Z" fill="black"/>
<path d="M384.375 60.5C382.678 61.197 380.723 61.5455 378.511 61.5455L386.868 71.504C389.08 71.504 391.034 71.1555 392.731 70.4586L384.375 60.5Z" fill="black"/>
<path d="M389.784 52.6364C389.784 54.5454 389.299 56.1667 388.33 57.5L396.686 67.4586C397.656 66.1252 398.14 64.504 398.14 62.5949L389.784 52.6364Z" fill="black"/>
<path d="M388.33 57.5C387.39 58.803 386.072 59.803 384.375 60.5L392.731 70.4586C394.428 69.7616 395.746 68.7616 396.686 67.4586L388.33 57.5Z" fill="black"/>
<path d="M415.784 47.1818C415.784 42.4545 414.542 38.3485 412.057 34.8636L420.413 44.8222C422.898 48.307 424.14 52.4131 424.14 57.1404L415.784 47.1818Z" fill="black"/>
<path d="M368.148 77.1818H380.33L388.686 87.1404H376.504L368.148 77.1818Z" fill="black"/>
<path d="M452.739 23.9091H424.557L432.913 33.8677H461.095L452.739 23.9091Z" fill="black"/>
<path d="M368.148 96.8182V77.1818L376.504 87.1404V106.777L368.148 96.8182Z" fill="black"/>
<path d="M380.33 77.1818C382.905 77.1818 385.102 77.5758 386.921 78.3636L395.277 88.3222C393.459 87.5343 391.262 87.1404 388.686 87.1404L380.33 77.1818Z" fill="black"/>
<path d="M413.511 56.5455C415.027 53.7273 415.784 50.6061 415.784 47.1818L424.14 57.1404C424.14 60.5646 423.383 63.6859 421.868 66.504L413.511 56.5455Z" fill="black"/>
<path d="M397.784 68.4545V67.5454L406.14 77.504V78.4131L397.784 68.4545Z" fill="black"/>
<path d="M397.784 67.5454C401.39 66.8182 404.542 65.5151 407.239 63.6364L415.595 73.5949C412.898 75.4737 409.746 76.7768 406.14 77.504L397.784 67.5454Z" fill="black"/>
<path d="M407.239 63.6363C409.936 61.7273 412.027 59.3636 413.511 56.5454L421.868 66.504C420.383 69.3222 418.292 71.6858 415.595 73.5949L407.239 63.6363Z" fill="black"/>
<path d="M386.92 78.3636C388.426 79.0053 389.65 79.8881 390.592 81.012L398.946 90.9672C398.004 89.8448 396.781 88.9632 395.277 88.3222L386.92 78.3636Z" fill="black"/>
<path d="M408.693 71.5C405.42 69.6212 401.784 68.606 397.784 68.4545L406.14 78.4131C410.14 78.5646 413.777 79.5798 417.049 81.4586L408.693 71.5Z" fill="black"/>
<path d="M390.593 81.0121C390.807 81.2682 391.008 81.5369 391.193 81.8182L399.549 91.7767C399.364 91.4955 399.164 91.2268 398.949 90.9706L390.593 81.0121Z" fill="black"/>
<path d="M379.966 96.8182H368.148L376.504 106.777H388.322L379.966 96.8182Z" fill="black"/>
<path d="M391.193 81.8182C392.193 83.3333 392.693 85.1818 392.693 87.3636L401.049 97.3222C401.049 95.1404 400.549 93.2919 399.549 91.7768L391.193 81.8182Z" fill="black"/>
<path d="M389.511 94.4545C387.39 96.0303 384.208 96.8182 379.966 96.8182L388.322 106.777C392.565 106.777 395.746 105.989 397.868 104.413L389.511 94.4545Z" fill="black"/>
<path d="M392.693 87.3636C392.693 90.4849 391.633 92.8485 389.511 94.4546L397.868 104.413C399.989 102.807 401.049 100.443 401.049 97.3222L392.693 87.3636Z" fill="black"/>
<path d="M414.448 76.2622C412.838 74.3451 410.92 72.7577 408.693 71.5L417.049 81.4586C419.276 82.7163 421.194 84.3037 422.804 86.2207L414.448 76.2622Z" fill="black"/>
<path d="M342.875 117H386.693L395.049 126.959H351.231L342.875 117Z" fill="black"/>
<path d="M416.511 79.1818C415.894 78.1393 415.208 77.169 414.455 76.271L422.804 86.2207C423.56 87.1212 424.248 88.0944 424.868 89.1404L416.511 79.1818Z" fill="black"/>
<path d="M424.557 23.9091L458.739 87.7273L467.095 97.6859L432.913 33.8677L424.557 23.9091Z" fill="black"/>
<path d="M470.92 61.7273L452.739 23.9091L461.095 33.8677L479.277 71.6858L470.92 61.7273Z" fill="black"/>
<path d="M419.42 90.6364C419.42 86.2424 418.451 82.4242 416.511 79.1818L424.868 89.1404C426.807 92.3828 427.777 96.201 427.777 100.595L419.42 90.6364Z" fill="black"/>
<path d="M489.829 23.9091L471.648 61.7273L480.004 71.6858L498.186 33.8677L489.829 23.9091Z" fill="black"/>
<path d="M518.011 23.9091H489.83L498.186 33.8677H526.368L518.011 23.9091Z" fill="black"/>
<path d="M386.693 117C393.451 117 399.269 115.864 404.148 113.591L412.504 123.549C407.625 125.822 401.807 126.959 395.049 126.959L386.693 117Z" fill="black"/>
<path d="M415.42 104.227C418.087 100.258 419.42 95.7273 419.42 90.6364L427.777 100.595C427.777 105.686 426.443 110.216 423.777 114.186L415.42 104.227Z" fill="black"/>
<path d="M404.148 113.591C409.026 111.318 412.784 108.197 415.42 104.227L423.777 114.186C421.14 118.156 417.383 121.277 412.504 123.549L404.148 113.591Z" fill="black"/>
<path d="M471.648 61.7273H470.92L479.277 71.6858H480.004L471.648 61.7273Z" fill="black"/>
<path d="M483.83 87.7273L518.011 23.9091L526.368 33.8677L492.186 97.6859L483.83 87.7273Z" fill="black"/>
<path d="M541.568 28.1364C534.78 31.7727 529.386 37.1515 525.386 44.2727L533.742 54.2313C537.742 47.1101 543.136 41.7313 549.924 38.0949L541.568 28.1364Z" fill="black"/>
<path d="M458.739 87.7273V117L467.095 126.959V97.6858L458.739 87.7273Z" fill="black"/>
<path d="M564.295 22.6364C555.932 22.6364 548.356 24.4697 541.568 28.1364L549.924 38.0949C556.712 34.4283 564.288 32.5949 572.652 32.5949L564.295 22.6364Z" fill="black"/>
<path d="M525.386 44.2727C521.386 51.3636 519.386 60.0909 519.386 70.4545L527.742 80.4131C527.742 70.0495 529.742 61.3222 533.742 54.2313L525.386 44.2727Z" fill="black"/>
<path d="M580.523 25.0454C575.583 23.4394 570.174 22.6364 564.295 22.6364L572.652 32.5949C578.53 32.5949 583.94 33.398 588.879 35.004L580.523 25.0454Z" fill="black"/>
<path d="M483.83 117V87.7273L492.186 97.6858V126.959L483.83 117Z" fill="black"/>
<path d="M458.739 117H483.83L492.186 126.959H467.095L458.739 117Z" fill="black"/>
<path d="M547.614 56.5909C549.129 52.7424 551.341 49.7879 554.25 47.7273L562.606 57.6858C559.697 59.7464 557.485 62.701 555.97 66.5495L547.614 56.5909Z" fill="black"/>
<path d="M554.25 47.7273C557.189 45.6667 560.78 44.6364 565.023 44.6364L573.379 54.5949C569.137 54.5949 565.546 55.6252 562.606 57.6858L554.25 47.7273Z" fill="black"/>
<path d="M593.523 32.0909C589.795 29 585.462 26.6515 580.523 25.0454L588.879 35.004C593.818 36.6101 598.152 38.9586 601.879 42.0495L593.523 32.0909Z" fill="black"/>
<path d="M519.386 70.4545C519.386 80.7576 521.341 89.4697 525.25 96.5909L533.606 106.549C529.697 99.4283 527.742 90.7161 527.742 80.4131L519.386 70.4545Z" fill="black"/>
<path d="M565.023 44.6364C567.447 44.6364 569.614 44.9848 571.523 45.6818L579.879 55.6404C577.97 54.9434 575.803 54.5949 573.379 54.5949L565.023 44.6364Z" fill="black"/>
<path d="M545.386 70.4545C545.386 65.0606 546.129 60.4394 547.614 56.5909L555.97 66.5495C554.485 70.398 553.742 75.0192 553.742 80.4131L545.386 70.4545Z" fill="black"/>
<path d="M571.523 45.6818C573.432 46.3485 575.053 47.3182 576.386 48.5909L584.743 58.5495C583.409 57.2768 581.788 56.3071 579.879 55.6404L571.523 45.6818Z" fill="black"/>
<path d="M576.386 48.5909C576.822 48.9881 577.227 49.4101 577.601 49.8568L585.939 59.7931C585.57 59.3546 585.171 58.94 584.742 58.5495L576.386 48.5909Z" fill="black"/>
<path d="M597.982 36.4989C596.634 34.8943 595.147 33.4249 593.523 32.0909L601.879 42.0495C603.504 43.3835 604.99 44.8529 606.338 46.4575L597.982 36.4989Z" fill="black"/>
<path d="M547.659 84.7727C546.144 80.9242 545.386 76.1515 545.386 70.4545L553.742 80.4131C553.742 86.1101 554.5 90.8828 556.015 94.7313L547.659 84.7727Z" fill="black"/>
<path d="M577.601 49.8568C578.397 50.8075 579.053 51.8704 579.568 53.0454L587.924 63.004C587.409 61.829 586.753 60.7661 585.958 59.8154L577.601 49.8568Z" fill="black"/>
<path d="M525.25 96.5909C526.655 99.1303 528.239 101.45 530.002 103.55L538.344 113.492C536.587 111.397 535.007 109.082 533.606 106.549L525.25 96.5909Z" fill="black"/>
<path d="M579.568 53.0454C580.356 54.7727 580.841 56.697 581.023 58.8182L589.379 68.7767C589.197 66.6555 588.712 64.7313 587.924 63.004L579.568 53.0454Z" fill="black"/>
<path d="M602.523 43.4091C601.248 40.8933 599.744 38.6016 598.012 36.534L606.338 46.4575C608.083 48.5343 609.597 50.8377 610.879 53.3677L602.523 43.4091Z" fill="black"/>
<path d="M550.922 90.3333C549.618 88.7782 548.53 86.9246 547.659 84.7727L556.015 94.7313C556.886 96.8832 557.974 98.7367 559.278 100.292L550.922 90.3333Z" fill="black"/>
<path d="M643.398 23.9091H618.125L626.481 33.8677H651.754L643.398 23.9091Z" fill="black"/>
<path d="M554.341 93.4091C553.074 92.5645 551.936 91.5417 550.928 90.3408L559.278 100.292C560.288 101.496 561.428 102.521 562.697 103.368L554.341 93.4091Z" fill="black"/>
<path d="M581.023 58.8182H606.659L615.015 68.7768H589.379L581.023 58.8182Z" fill="black"/>
<path d="M530.002 103.55C533.183 107.339 536.948 110.414 541.295 112.773L549.652 122.731C545.304 120.372 541.539 117.298 538.358 113.509L530.002 103.55Z" fill="black"/>
<path d="M606.659 58.8182C606.174 53.0303 604.795 47.8939 602.523 43.4091L610.879 53.3677C613.152 57.8525 614.53 62.9889 615.015 68.7768L606.659 58.8182Z" fill="black"/>
<path d="M564.841 96.2727C560.75 96.2727 557.25 95.3182 554.341 93.4091L562.697 103.368C565.606 105.277 569.106 106.231 573.197 106.231L564.841 96.2727Z" fill="black"/>
<path d="M618.125 23.9091V83.5455L626.481 93.504V33.8677L618.125 23.9091Z" fill="black"/>
<path d="M571.114 95.4091C569.265 95.9848 567.174 96.2727 564.841 96.2727L573.197 106.231C575.53 106.231 577.621 105.943 579.47 105.368L571.114 95.4091Z" fill="black"/>
<path d="M581.023 83.3636C580.72 85.3636 580.129 87.1666 579.25 88.7727L587.606 98.7313C588.485 97.1252 589.076 95.3222 589.379 93.3222L581.023 83.3636Z" fill="black"/>
<path d="M575.932 92.8182C574.568 93.9394 572.962 94.803 571.114 95.4091L579.47 105.368C581.318 104.762 582.925 103.898 584.288 102.777L575.932 92.8182Z" fill="black"/>
<path d="M579.25 88.7727C578.402 90.3485 577.296 91.6969 575.932 92.8182L584.288 102.777C585.652 101.656 586.758 100.307 587.606 98.7313L579.25 88.7727Z" fill="black"/>
<path d="M541.295 112.773C548.083 116.439 555.75 118.273 564.295 118.273L572.652 128.231C564.106 128.231 556.44 126.398 549.652 122.731L541.295 112.773Z" fill="black"/>
<path d="M606.659 83.5454L581.023 83.3636L589.379 93.3222L615.015 93.504L606.659 83.5454Z" fill="black"/>
<path d="M643.398 81.3636V23.9091L651.754 33.8677V91.3222L643.398 81.3636Z" fill="black"/>
<path d="M603.341 95.5909C605.25 91.5 606.356 87.4848 606.659 83.5454L615.015 93.504C614.712 97.4434 613.606 101.459 611.697 105.549L603.341 95.5909Z" fill="black"/>
<path d="M564.295 118.273C571.114 118.273 577.098 117.227 582.25 115.136L590.606 125.095C585.455 127.186 579.47 128.231 572.652 128.231L564.295 118.273Z" fill="black"/>
<path d="M698.489 23.9091H673.216L681.572 33.8677H706.845L698.489 23.9091Z" fill="black"/>
<path d="M595.205 106.864C598.72 103.409 601.432 99.6515 603.341 95.5909L611.697 105.549C609.788 109.61 607.076 113.368 603.561 116.822L595.205 106.864Z" fill="black"/>
<path d="M582.25 115.136C587.402 113.045 591.72 110.288 595.205 106.864L603.561 116.822C600.076 120.246 595.758 123.004 590.606 125.095L582.25 115.136Z" fill="black"/>
<path d="M618.125 83.5454C618.125 90.6364 619.792 96.7727 623.125 101.955L631.481 111.913C628.148 106.731 626.481 100.595 626.481 93.504L618.125 83.5454Z" fill="black"/>
<path d="M673.216 23.9091V81.3636L681.572 91.3222V33.8677L673.216 23.9091Z" fill="black"/>
<path d="M645.307 89.0909C644.034 86.8182 643.398 84.2424 643.398 81.3636L651.754 91.3222C651.754 94.201 652.39 96.7767 653.663 99.0495L645.307 89.0909Z" fill="black"/>
<path d="M623.125 101.955C623.824 103.025 624.581 104.045 625.395 105.015L633.74 114.961C632.93 113.995 632.177 112.979 631.481 111.913L623.125 101.955Z" fill="black"/>
<path d="M646.778 91.2154C646.231 90.5636 645.741 89.8554 645.307 89.0909L653.663 99.0495C654.097 99.814 654.587 100.522 655.134 101.174L646.778 91.2154Z" fill="black"/>
<path d="M750.864 23.9091H710.5L718.856 33.8677H759.22L750.864 23.9091Z" fill="black"/>
<path d="M650.579 94.3636C649.104 93.5261 647.838 92.4785 646.782 91.221L655.134 101.174C656.191 102.434 657.458 103.483 658.936 104.322L650.579 94.3636Z" fill="black"/>
<path d="M625.395 105.015C628.499 108.712 632.439 111.677 637.216 113.909L645.572 123.868C640.795 121.635 636.855 118.671 633.751 114.974L625.395 105.015Z" fill="black"/>
<path d="M698.489 83.5455V23.9091L706.845 33.8677V93.504L698.489 83.5455Z" fill="black"/>
<path d="M658.307 96.2727C655.428 96.2727 652.852 95.6364 650.58 94.3636L658.936 104.322C661.209 105.595 663.784 106.231 666.663 106.231L658.307 96.2727Z" fill="black"/>
<path d="M673.216 81.3636C673.216 84.2424 672.58 86.8182 671.307 89.0909L679.663 99.0495C680.936 96.7767 681.572 94.201 681.572 91.3222L673.216 81.3636Z" fill="black"/>
<path d="M666.034 94.3636C663.792 95.6364 661.216 96.2727 658.307 96.2727L666.663 106.231C669.572 106.231 672.148 105.595 674.39 104.322L666.034 94.3636Z" fill="black"/>
<path d="M671.307 89.0909C670.034 91.3333 668.277 93.0909 666.034 94.3636L674.39 104.322C676.633 103.049 678.39 101.292 679.663 99.0495L671.307 89.0909Z" fill="black"/>
<path d="M637.216 113.909C643.246 116.697 650.276 118.091 658.307 118.091L666.663 128.049C658.633 128.049 651.602 126.656 645.572 123.868L637.216 113.909Z" fill="black"/>
<path d="M768.727 26.7727C763.909 24.8636 757.955 23.9091 750.864 23.9091L759.22 33.8677C766.311 33.8677 772.265 34.8222 777.084 36.7313L768.727 26.7727Z" fill="black"/>
<path d="M735.773 43.7273H746.5L754.856 53.6858H744.129L735.773 43.7273Z" fill="black"/>
<path d="M710.5 23.9091V117L718.856 126.959V33.8677L710.5 23.9091Z" fill="black"/>
<path d="M735.773 61.5454V43.7273L744.129 53.6858V71.504L735.773 61.5454Z" fill="black"/>
<path d="M746.5 43.7273C749.652 43.7273 752.258 44.5 754.318 46.0454L762.674 56.004C760.614 54.4586 758.008 53.6858 754.856 53.6858L746.5 43.7273Z" fill="black"/>
<path d="M693.398 101.955C696.792 96.7727 698.489 90.6364 698.489 83.5454L706.845 93.504C706.845 100.595 705.148 106.731 701.754 111.913L693.398 101.955Z" fill="black"/>
<path d="M658.307 118.091C666.277 118.091 673.277 116.697 679.307 113.909L687.663 123.868C681.633 126.656 674.633 128.049 666.663 128.049L658.307 118.091Z" fill="black"/>
<path d="M778.69 33.5761C776.282 30.7076 772.961 28.4397 768.727 26.7727L777.084 36.7313C781.317 38.3983 784.638 40.6661 787.047 43.5347L778.69 33.5761Z" fill="black"/>
<path d="M754.318 46.0454C754.826 46.4189 755.271 46.8338 755.654 47.2901L764.008 57.2463C763.626 56.7909 763.181 56.3768 762.674 56.004L754.318 46.0454Z" fill="black"/>
<path d="M746.136 61.5454H735.773L744.129 71.504H754.493L746.136 61.5454Z" fill="black"/>
<path d="M679.307 113.909C685.337 111.091 690.034 107.106 693.398 101.955L701.754 111.913C698.39 117.065 693.693 121.049 687.663 123.868L679.307 113.909Z" fill="black"/>
<path d="M755.654 47.2901C756.824 48.6851 757.409 50.4672 757.409 52.6363L765.765 62.5949C765.765 60.4257 765.181 58.6437 764.011 57.2487L755.654 47.2901Z" fill="black"/>
<path d="M779.682 34.8636C779.373 34.4247 779.045 33.9983 778.697 33.5844L787.047 43.5347C787.396 43.9512 787.727 44.3804 788.038 44.8222L779.682 34.8636Z" fill="black"/>
<path d="M752 60.5C750.303 61.197 748.348 61.5455 746.136 61.5455L754.492 71.504C756.705 71.504 758.659 71.1555 760.356 70.4586L752 60.5Z" fill="black"/>
<path d="M757.409 52.6364C757.409 54.5454 756.924 56.1667 755.955 57.5L764.311 67.4586C765.281 66.1252 765.765 64.504 765.765 62.5949L757.409 52.6364Z" fill="black"/>
<path d="M755.955 57.5C755.015 58.803 753.697 59.803 752 60.5L760.356 70.4586C762.053 69.7616 763.371 68.7616 764.311 67.4586L755.955 57.5Z" fill="black"/>
<path d="M783.409 47.1818C783.409 42.4545 782.167 38.3485 779.682 34.8636L788.038 44.8222C790.523 48.307 791.765 52.4131 791.765 57.1404L783.409 47.1818Z" fill="black"/>
<path d="M735.773 77.1818H747.955L756.311 87.1404H744.129L735.773 77.1818Z" fill="black"/>
<path d="M735.773 96.8182V77.1818L744.129 87.1404V106.777L735.773 96.8182Z" fill="black"/>
<path d="M747.955 77.1818C750.53 77.1818 752.727 77.5758 754.546 78.3636L762.902 88.3222C761.084 87.5343 758.887 87.1404 756.311 87.1404L747.955 77.1818Z" fill="black"/>
<path d="M781.136 56.5455C782.651 53.7273 783.409 50.6061 783.409 47.1818L791.765 57.1404C791.765 60.5646 791.008 63.6859 789.492 66.504L781.136 56.5455Z" fill="black"/>
<path d="M765.409 68.4545V67.5454L773.765 77.504V78.4131L765.409 68.4545Z" fill="black"/>
<path d="M765.409 67.5454C769.015 66.8182 772.167 65.5151 774.864 63.6364L783.22 73.5949C780.523 75.4737 777.371 76.7768 773.765 77.504L765.409 67.5454Z" fill="black"/>
<path d="M774.864 63.6363C777.561 61.7273 779.652 59.3636 781.136 56.5454L789.493 66.504C788.008 69.3222 785.917 71.6858 783.22 73.5949L774.864 63.6363Z" fill="black"/>
<path d="M754.545 78.3636C756.051 79.0053 757.275 79.8881 758.217 81.012L766.571 90.9672C765.629 89.8448 764.405 88.9632 762.902 88.3222L754.545 78.3636Z" fill="black"/>
<path d="M776.318 71.5C773.046 69.6212 769.409 68.606 765.409 68.4545L773.765 78.4131C777.765 78.5646 781.402 79.5798 784.674 81.4586L776.318 71.5Z" fill="black"/>
<path d="M758.218 81.0121C758.432 81.2682 758.633 81.5369 758.818 81.8182L767.174 91.7768C766.989 91.4955 766.789 91.2268 766.574 90.9706L758.218 81.0121Z" fill="black"/>
<path d="M747.591 96.8182H735.773L744.129 106.777H755.947L747.591 96.8182Z" fill="black"/>
<path d="M863.091 23.9091H796L804.356 33.8677H871.447L863.091 23.9091Z" fill="black"/>
<path d="M758.818 81.8182C759.818 83.3333 760.318 85.1818 760.318 87.3636L768.674 97.3222C768.674 95.1404 768.174 93.2919 767.174 91.7768L758.818 81.8182Z" fill="black"/>
<path d="M757.136 94.4545C755.015 96.0303 751.833 96.8182 747.591 96.8182L755.947 106.777C760.189 106.777 763.371 105.989 765.492 104.413L757.136 94.4545Z" fill="black"/>
<path d="M760.318 87.3636C760.318 90.4849 759.257 92.8485 757.136 94.4546L765.492 104.413C767.614 102.807 768.674 100.443 768.674 97.3222L760.318 87.3636Z" fill="black"/>
<path d="M782.073 76.2621C780.463 74.3451 778.545 72.7577 776.318 71.5L784.674 81.4586C786.901 82.7163 788.819 84.3037 790.429 86.2207L782.073 76.2621Z" fill="black"/>
<path d="M710.5 117H754.318L762.674 126.959H718.856L710.5 117Z" fill="black"/>
<path d="M784.136 79.1818C783.518 78.1393 782.833 77.169 782.08 76.271L790.429 86.2207C791.185 87.1212 791.873 88.0944 792.493 89.1404L784.136 79.1818Z" fill="black"/>
<path d="M796 23.9091V117L804.356 126.959V33.8677L796 23.9091Z" fill="black"/>
<path d="M821.273 60.2727V44.2727L829.629 54.2313V70.2313L821.273 60.2727Z" fill="black"/>
<path d="M787.045 90.6364C787.045 86.2424 786.076 82.4242 784.136 79.1818L792.492 89.1404C794.432 92.3828 795.402 96.201 795.402 100.595L787.045 90.6364Z" fill="black"/>
<path d="M821.273 44.2727H863.091L871.447 54.2313H829.629L821.273 44.2727Z" fill="black"/>
<path d="M754.318 117C761.076 117 766.894 115.864 771.773 113.591L780.129 123.549C775.25 125.822 769.432 126.959 762.674 126.959L754.318 117Z" fill="black"/>
<path d="M783.045 104.227C785.712 100.258 787.045 95.7273 787.045 90.6364L795.402 100.595C795.402 105.686 794.068 110.216 791.402 114.186L783.045 104.227Z" fill="black"/>
<path d="M863.091 44.2727V23.9091L871.447 33.8677V54.2313L863.091 44.2727Z" fill="black"/>
<path d="M771.773 113.591C776.651 111.318 780.409 108.197 783.045 104.227L791.402 114.186C788.765 118.156 785.008 121.277 780.129 123.549L771.773 113.591Z" fill="black"/>
<path d="M859.636 60.2727H821.273L829.629 70.2313H867.993L859.636 60.2727Z" fill="black"/>
<path d="M821.273 96.6363V80.6364L829.629 90.5949V106.595L821.273 96.6363Z" fill="black"/>
<path d="M821.273 80.6364H859.636L867.993 90.5949H829.629L821.273 80.6364Z" fill="black"/>
<path d="M859.636 80.6363V60.2727L867.992 70.2313V90.5949L859.636 80.6363Z" fill="black"/>
<path d="M862.909 96.6364H821.273L829.629 106.595H871.265L862.909 96.6364Z" fill="black"/>
<path d="M796 117H862.909L871.265 126.959H804.356L796 117Z" fill="black"/>
<path d="M862.909 117V96.6364L871.265 106.595V126.959L862.909 117Z" fill="black"/>
<g filter="url(#filter2_d_7_2)">
<path d="M165 117V23.9091H205.182C212.091 23.9091 218.136 25.1667 223.318 27.6818C228.5 30.197 232.53 33.8182 235.409 38.5455C238.288 43.2727 239.727 48.9394 239.727 55.5455C239.727 62.2121 238.242 67.8333 235.273 72.4091C232.333 76.9848 228.197 80.4394 222.864 82.7727C217.561 85.1061 211.364 86.2727 204.273 86.2727H180.273V66.6364H199.182C202.152 66.6364 204.682 66.2727 206.773 65.5455C208.894 64.7879 210.515 63.5909 211.636 61.9545C212.788 60.3182 213.364 58.1818 213.364 55.5455C213.364 52.8788 212.788 50.7121 211.636 49.0455C210.515 47.3485 208.894 46.1061 206.773 45.3182C204.682 44.5 202.152 44.0909 199.182 44.0909H190.273V117H165ZM219.545 74.2727L242.818 117H215.364L192.636 74.2727H219.545ZM305.591 23.9091H330.864V83.5455C330.864 90.6364 329.167 96.7727 325.773 101.955C322.409 107.106 317.712 111.091 311.682 113.909C305.652 116.697 298.652 118.091 290.682 118.091C282.652 118.091 275.621 116.697 269.591 113.909C263.561 111.091 258.864 107.106 255.5 101.955C252.167 96.7727 250.5 90.6364 250.5 83.5455V23.9091H275.773V81.3636C275.773 84.2424 276.409 86.8182 277.682 89.0909C278.955 91.3333 280.712 93.0909 282.955 94.3636C285.227 95.6364 287.803 96.2727 290.682 96.2727C293.591 96.2727 296.167 95.6364 298.409 94.3636C300.652 93.0909 302.409 91.3333 303.682 89.0909C304.955 86.8182 305.591 84.2424 305.591 81.3636V23.9091ZM342.875 117V23.9091H383.239C390.33 23.9091 396.284 24.8636 401.102 26.7727C405.951 28.6818 409.602 31.3788 412.057 34.8636C414.542 38.3485 415.784 42.4545 415.784 47.1818C415.784 50.6061 415.027 53.7273 413.511 56.5455C412.027 59.3636 409.936 61.7273 407.239 63.6364C404.542 65.5151 401.39 66.8182 397.784 67.5455V68.4545C401.784 68.6061 405.42 69.6212 408.693 71.5C411.966 73.3485 414.572 75.9091 416.511 79.1818C418.451 82.4242 419.42 86.2424 419.42 90.6364C419.42 95.7273 418.087 100.258 415.42 104.227C412.784 108.197 409.027 111.318 404.148 113.591C399.269 115.864 393.451 117 386.693 117H342.875ZM368.148 96.8182H379.966C384.208 96.8182 387.39 96.0303 389.511 94.4545C391.633 92.8485 392.693 90.4848 392.693 87.3636C392.693 85.1818 392.193 83.3333 391.193 81.8182C390.193 80.303 388.769 79.1515 386.92 78.3636C385.102 77.5758 382.905 77.1818 380.33 77.1818H368.148V96.8182ZM368.148 61.5455H378.511C380.723 61.5455 382.678 61.197 384.375 60.5C386.072 59.803 387.39 58.803 388.33 57.5C389.299 56.1667 389.784 54.5455 389.784 52.6364C389.784 49.7576 388.754 47.5606 386.693 46.0455C384.633 44.5 382.027 43.7273 378.875 43.7273H368.148V61.5455ZM424.557 23.9091H452.739L470.92 61.7273H471.648L489.83 23.9091H518.011L483.83 87.7273V117H458.739V87.7273L424.557 23.9091ZM606.659 58.8182H581.023C580.841 56.697 580.356 54.7727 579.568 53.0455C578.811 51.3182 577.75 49.8333 576.386 48.5909C575.053 47.3182 573.432 46.3485 571.523 45.6818C569.614 44.9848 567.447 44.6364 565.023 44.6364C560.78 44.6364 557.189 45.6667 554.25 47.7273C551.341 49.7879 549.129 52.7424 547.614 56.5909C546.129 60.4394 545.386 65.0606 545.386 70.4545C545.386 76.1515 546.144 80.9242 547.659 84.7727C549.205 88.5909 551.432 91.4697 554.341 93.4091C557.25 95.3182 560.75 96.2727 564.841 96.2727C567.174 96.2727 569.265 95.9848 571.114 95.4091C572.962 94.803 574.568 93.9394 575.932 92.8182C577.295 91.697 578.402 90.3485 579.25 88.7727C580.129 87.1667 580.72 85.3636 581.023 83.3636L606.659 83.5455C606.356 87.4848 605.25 91.5 603.341 95.5909C601.432 99.6515 598.72 103.409 595.205 106.864C591.72 110.288 587.402 113.045 582.25 115.136C577.098 117.227 571.114 118.273 564.295 118.273C555.75 118.273 548.083 116.439 541.295 112.773C534.538 109.106 529.189 103.712 525.25 96.5909C521.341 89.4697 519.386 80.7576 519.386 70.4545C519.386 60.0909 521.386 51.3636 525.386 44.2727C529.386 37.1515 534.78 31.7727 541.568 28.1364C548.356 24.4697 555.932 22.6364 564.295 22.6364C570.174 22.6364 575.583 23.4394 580.523 25.0454C585.462 26.6515 589.795 29 593.523 32.0909C597.25 35.1515 600.25 38.9242 602.523 43.4091C604.795 47.8939 606.174 53.0303 606.659 58.8182ZM673.216 23.9091H698.489V83.5455C698.489 90.6364 696.792 96.7727 693.398 101.955C690.034 107.106 685.337 111.091 679.307 113.909C673.277 116.697 666.277 118.091 658.307 118.091C650.277 118.091 643.246 116.697 637.216 113.909C631.186 111.091 626.489 107.106 623.125 101.955C619.792 96.7727 618.125 90.6364 618.125 83.5455V23.9091H643.398V81.3636C643.398 84.2424 644.034 86.8182 645.307 89.0909C646.58 91.3333 648.337 93.0909 650.58 94.3636C652.852 95.6364 655.428 96.2727 658.307 96.2727C661.216 96.2727 663.792 95.6364 666.034 94.3636C668.277 93.0909 670.034 91.3333 671.307 89.0909C672.58 86.8182 673.216 84.2424 673.216 81.3636V23.9091ZM710.5 117V23.9091H750.864C757.955 23.9091 763.909 24.8636 768.727 26.7727C773.576 28.6818 777.227 31.3788 779.682 34.8636C782.167 38.3485 783.409 42.4545 783.409 47.1818C783.409 50.6061 782.652 53.7273 781.136 56.5455C779.652 59.3636 777.561 61.7273 774.864 63.6364C772.167 65.5151 769.015 66.8182 765.409 67.5455V68.4545C769.409 68.6061 773.045 69.6212 776.318 71.5C779.591 73.3485 782.197 75.9091 784.136 79.1818C786.076 82.4242 787.045 86.2424 787.045 90.6364C787.045 95.7273 785.712 100.258 783.045 104.227C780.409 108.197 776.652 111.318 771.773 113.591C766.894 115.864 761.076 117 754.318 117H710.5ZM735.773 96.8182H747.591C751.833 96.8182 755.015 96.0303 757.136 94.4545C759.258 92.8485 760.318 90.4848 760.318 87.3636C760.318 85.1818 759.818 83.3333 758.818 81.8182C757.818 80.303 756.394 79.1515 754.545 78.3636C752.727 77.5758 750.53 77.1818 747.955 77.1818H735.773V96.8182ZM735.773 61.5455H746.136C748.348 61.5455 750.303 61.197 752 60.5C753.697 59.803 755.015 58.803 755.955 57.5C756.924 56.1667 757.409 54.5455 757.409 52.6364C757.409 49.7576 756.379 47.5606 754.318 46.0455C752.258 44.5 749.652 43.7273 746.5 43.7273H735.773V61.5455ZM796 117V23.9091H863.091V44.2727H821.273V60.2727H859.636V80.6364H821.273V96.6364H862.909V117H796Z" fill="url(#paint1_linear_7_2)"/>
</g>
<defs>
<filter id="filter0_d_7_2" x="11.9058" y="13.2869" width="135.219" height="119.402" filterUnits="userSpaceOnUse" color-interpolation-filters="sRGB">
<feFlood flood-opacity="0" result="BackgroundImageFix"/>
<feColorMatrix in="SourceAlpha" type="matrix" values="0 0 0 0 0 0 0 0 0 0 0 0 0 0 0 0 0 0 127 0" result="hardAlpha"/>
<feOffset dy="4"/>
<feGaussianBlur stdDeviation="2"/>
<feComposite in2="hardAlpha" operator="out"/>
<feColorMatrix type="matrix" values="0 0 0 0 0 0 0 0 0 0 0 0 0 0 0 0 0 0 0.25 0"/>
<feBlend mode="normal" in2="BackgroundImageFix" result="effect1_dropShadow_7_2"/>
<feBlend mode="normal" in="SourceGraphic" in2="effect1_dropShadow_7_2" result="shape"/>
</filter>
<filter id="filter1_d_7_2" x="163.356" y="22.5949" width="718.091" height="115.636" filterUnits="userSpaceOnUse" color-interpolation-filters="sRGB">
<feFlood flood-opacity="0" result="BackgroundImageFix"/>
<feColorMatrix in="SourceAlpha" type="matrix" values="0 0 0 0 0 0 0 0 0 0 0 0 0 0 0 0 0 0 127 0" result="hardAlpha"/>
<feOffset/>
<feGaussianBlur stdDeviation="5"/>
<feComposite in2="hardAlpha" operator="out"/>
<feColorMatrix type="matrix" values="0 0 0 0 0 0 0 0 0 0 0 0 0 0 0 0 0 0 0.25 0"/>
<feBlend mode="normal" in2="BackgroundImageFix" result="effect1_dropShadow_7_2"/>
<feBlend mode="normal" in="SourceGraphic" in2="effect1_dropShadow_7_2" result="shape"/>
</filter>
<filter id="filter2_d_7_2" x="155" y="12.6364" width="718.091" height="115.636" filterUnits="userSpaceOnUse" color-interpolation-filters="sRGB">
<feFlood flood-opacity="0" result="BackgroundImageFix"/>
<feColorMatrix in="SourceAlpha" type="matrix" values="0 0 0 0 0 0 0 0 0 0 0 0 0 0 0 0 0 0 127 0" result="hardAlpha"/>
<feOffset/>
<feGaussianBlur stdDeviation="5"/>
<feComposite in2="hardAlpha" operator="out"/>
<feColorMatrix type="matrix" values="0 0 0 0 0 0 0 0 0 0 0 0 0 0 0 0 0 0 0.25 0"/>
<feBlend mode="normal" in2="BackgroundImageFix" result="effect1_dropShadow_7_2"/>
<feBlend mode="normal" in="SourceGraphic" in2="effect1_dropShadow_7_2" result="shape"/>
</filter>
<linearGradient id="paint0_linear_7_2" x1="79.5" y1="16" x2="79.5" y2="122" gradientUnits="userSpaceOnUse">
<stop stop-color="#E81A64"/>
<stop offset="1" stop-color="#EC4242"/>
</linearGradient>
<linearGradient id="paint1_linear_7_2" x1="515" y1="11" x2="515" y2="126" gradientUnits="userSpaceOnUse">
<stop stop-color="#8D2535"/>
<stop offset="1" stop-color="#C21B43"/>
</linearGradient>
</defs>
</svg>
